<?xml version="1.0" encoding="utf-8"?>
<!-- Generator: Adobe Illustrator 24.3.0, SVG Export Plug-In . SVG Version: 6.00 Build 0)  -->
<svg version="1.1" id="Слой_1" xmlns="http://www.w3.org/2000/svg" xmlns:xlink="http://www.w3.org/1999/xlink" x="0px" y="0px"
	 viewBox="0 0 1920 3900.75" style="enable-background:new 0 0 1920 3900.75;" xml:space="preserve">
<style type="text/css">
	.st0{opacity:0.1;}
	.st1{fill:#D9C3E0;}
	.st2{fill:#010202;}
</style>
<g class="st0">
	<path class="st1" d="M44.5,3828.82c-6.34,0-11.5-5.16-11.5-11.5V57.63c0-6.34,5.16-11.5,11.5-11.5h1837.79
		c6.34,0,11.5,5.16,11.5,11.5v3759.69c0,6.34-5.16,11.5-11.5,11.5H44.5z"/>
	<path class="st2" d="M1882.29,46.63c6.07,0,11,4.93,11,11v3759.69c0,6.07-4.93,11-11,11H44.5c-6.07,0-11-4.93-11-11V57.63
		c0-6.07,4.93-11,11-11H1882.29 M1882.29,45.63H44.5c-6.6,0-12,5.4-12,12v3759.69c0,6.6,5.4,12,12,12h1837.8c6.6,0,12-5.4,12-12
		V57.63C1894.29,51.03,1888.89,45.63,1882.29,45.63L1882.29,45.63z"/>
</g>
</svg>
